<svg width="21" height="21" viewBox="0 0 21 21" fill="none" xmlns="http://www.w3.org/2000/svg"><path fill-rule="evenodd" clip-rule="evenodd" d="M16.012 3.675a1.312 1.312 0 1 0 0 2.625 1.312 1.312 0 0 0 0-2.625zm2.888 11.55c0 1.837-1.839 3.676-3.675 3.676h-9.45c-1.836 0-3.675-1.863-3.675-3.675v-9.45c0-1.8 1.875-3.675 3.675-3.675h9.45c1.816 0 3.675 1.826 3.675 3.675v9.45zM15.225 0h-9.45C2.897 0 0 2.88 0 5.775v9.45C0 18.124 2.852 21 5.775 21h9.45C18.124 21 21 18.1 21 15.225v-9.45C21 2.914 18.102 0 15.225 0zM10.5 13.65a3.15 3.15 0 1 1 0-6.3 3.15 3.15 0 0 1 0 6.3zm0-8.4a5.25 5.25 0 1 0 0 10.5 5.25 5.25 0 0 0 0-10.5z" fill="#fff"/></svg>