<svg width="29" height="17" viewBox="0 0 29 17" fill="none" xmlns="http://www.w3.org/2000/svg"><path d="M14.066 15.937h1.594s.482-.05.73-.311c.226-.239.22-.69.22-.69s-.03-2.109.965-2.42c.979-.306 2.237 2.04 3.573 2.938 1.01.684 1.776.531 1.776.531l3.564-.048s1.866-.113.98-1.556c-.073-.118-.517-1.068-2.65-3.021-2.237-2.045-1.938-1.712.757-5.246 1.64-2.154 2.294-3.466 2.09-4.032-.199-.537-1.406-.398-1.406-.398l-4.016.027s-.3-.04-.52.089c-.216.126-.355.424-.355.424s-.637 1.666-1.485 3.083c-1.787 2.991-2.501 3.147-2.793 2.962-.68-.432-.512-1.739-.512-2.665 0-2.895.447-4.105-.87-4.416-.435-.105-.757-.172-1.874-.185-1.43-.013-2.645.005-3.33.335-.457.22-.809.711-.596.74.267.033.866.16 1.188.589.411.55.395 1.786.395 1.786s.245 3.41-.545 3.835c-.54.29-1.283-.304-2.877-3.016-.818-1.39-1.433-2.925-1.433-2.925s-.12-.284-.336-.44c-.256-.188-.615-.244-.615-.244l-3.812.021s-.575.017-.785.263c-.188.218-.016.669-.016.669s2.986 6.882 6.37 10.348c3.1 3.182 6.624 2.973 6.624 2.973z" stroke="#fff" stroke-width="2"/></svg>